<svg width="161px" height="66px" viewBox="0 0 161 66" version="1.1" xmlns="http://www.w3.org/2000/svg" xmlns:xlink="http://www.w3.org/1999/xlink">
    <g stroke="none" stroke-width="1" fill="none" fill-rule="evenodd">
        <g fill="#1A1D38" fill-rule="nonzero">
            <path d="M2.03,45.65 C3.98,45.6 5.49,45.38 6.59,44.96 C7.69,44.55 8.63,43.78 9.44,42.65 C10.24,41.52 11.07,39.85 11.92,37.64 L12.46,36.3 L22.84,9.75 C23.64,7.65 24.05,6.26 24.05,5.57 C24.05,4.61 23.62,3.87 22.74,3.36 C21.87,2.85 20.61,2.58 18.96,2.58 C16.37,2.58 13.76,3.13 11.14,4.22 C8.51,5.31 6.38,6.71 4.74,8.39 C3.1,10.08 2.28,11.79 2.28,13.53 C2.28,14.29 2.47,14.91 2.84,15.39 C3.2,15.87 3.68,16.11 4.26,16.11 C4.67,16.11 5,16.01 5.27,15.81 L6.01,15.21 C6.28,14.99 6.56,14.88 6.85,14.88 C7.41,14.88 7.9,15.13 8.33,15.65 C8.75,16.16 8.96,16.76 8.96,17.46 C8.96,18.37 8.58,19.17 7.81,19.85 C7.04,20.53 6.15,20.87 5.15,20.87 C3.76,20.87 2.63,20.32 1.73,19.23 C0.84,18.13 0.39,16.75 0.39,15.08 C0.39,13.63 0.7,12.24 1.31,10.91 C1.92,9.58 2.82,8.33 4.01,7.14 C5.19,5.96 6.64,4.89 8.36,3.93 C12.56,1.58 18.37,0.42 25.81,0.42 C28.44,0.42 30.95,0.56 33.34,0.84 C35.73,1.12 37.91,1.52 39.86,2.06 C43.08,2.91 45.87,4.24 48.24,6.05 C50.61,7.85 52.45,10.04 53.77,12.61 C55.09,15.18 55.74,17.91 55.74,20.82 C55.74,22.74 55.45,24.73 54.87,26.78 C54.29,28.83 53.49,30.76 52.46,32.54 C51.43,34.33 50.17,36.01 48.66,37.6 C47.15,39.18 45.47,40.6 43.62,41.85 C41.81,43.05 39.94,44.02 38,44.73 C36.06,45.44 33.82,45.97 31.28,46.3 C28.74,46.63 25.96,46.8 22.92,46.8 C21.49,46.8 19.61,46.77 17.26,46.7 C15.7,46.66 14.83,46.63 14.65,46.63 L1.63,46.63 L2.03,45.65 Z M29.25,9.78 L18.84,36.37 C18.82,36.41 18.57,37.01 18.1,38.14 C17.23,40.33 16.8,41.77 16.8,42.46 C16.8,43.44 17.32,44.17 18.35,44.64 C19.39,45.11 21.01,45.34 23.22,45.34 C30,45.34 35.6,43.45 40,39.65 C41.85,38.06 43.51,36.1 44.97,33.76 C46.43,31.41 47.56,28.91 48.36,26.26 C49.15,23.6 49.55,21.04 49.55,18.56 C49.55,16.31 49.22,14.18 48.58,12.18 C47.93,10.18 47.03,8.53 45.86,7.24 C45.17,6.46 44.25,5.73 43.1,5.05 C41.95,4.37 40.74,3.84 39.47,3.46 C38.2,3.08 36.97,2.89 35.79,2.89 C34.23,2.89 33.06,3.23 32.29,3.91 C31.52,4.59 30.72,6 29.89,8.15 L29.25,9.78 Z" id="Shape"></path>
            <path d="M73.67,19.37 C72.52,20 70.86,22.12 69.9,23.48 C68.36,25.71 66.78,28.71 65.18,32.49 L64.14,34.83 C63.94,35.3 63.79,35.65 63.71,35.87 C63.62,36.09 63.55,36.24 63.51,36.3 L59.36,46.61 L54.33,46.61 L63.71,23.31 C64.33,21.77 64.65,20.81 64.65,20.43 C64.65,20.05 64.51,19.86 64.22,19.86 C63.82,19.86 63.03,20.53 61.84,21.87 C61.3,22.45 60.53,23.37 59.53,24.61 C59.17,25.06 58.59,25.86 57.79,27.02 L57.52,27.39 L56.65,26.95 L57.02,26.45 C59.03,23.57 60.95,21.26 62.78,19.52 C64.61,17.78 66.05,16.91 67.1,16.91 C67.72,16.91 68.23,17.13 68.59,17.56 C68.96,17.99 69.14,18.58 69.14,19.32 C69.14,20.13 68.86,21.78 68.27,24.31 C70.57,20.25 73.15,17.86 74.34,17.27 C75.65,16.62 76.64,16.36 77.85,16.6 C79.07,16.84 79.95,17.5 80.52,18.57 C80.93,19.35 81.03,20.17 80.82,21.05 C80.61,21.93 80.14,22.55 79.43,22.92 C78.89,23.2 78.34,23.29 77.77,23.17 C77.19,23.05 76.8,22.77 76.57,22.34 C76.45,22.12 76.43,21.86 76.49,21.56 L76.66,20.74 C76.71,20.45 76.65,20.15 76.48,19.84 C76.24,19.39 75.86,19.12 75.34,19.03 C74.81,18.95 74.25,19.05 73.67,19.37 Z" id="Shape"></path>
            <path d="M100.71,17.48 L100.34,18.25 C100.14,18.74 99.84,19.43 99.44,20.3 C99.04,21.19 98.58,22.19 98.08,23.32 C97.58,24.45 97.11,25.5 96.69,26.49 C96.26,27.47 95.89,28.32 95.58,29.03 C94.13,32.4 92.74,35.85 91.42,39.38 C90.73,41.26 90.38,42.45 90.38,42.96 C90.38,43.3 90.5,43.46 90.75,43.46 C91.08,43.46 91.79,42.86 92.89,41.65 C93.98,40.45 95.07,39.05 96.14,37.46 L96.82,37.89 C95.21,40.44 93.41,42.62 91.64,44.3 C89.87,45.97 88.43,46.81 87.3,46.81 C86.2,46.81 85.66,46.19 85.66,44.97 C85.66,43.76 86.23,41.45 87.37,38.01 L87.64,37.14 L87.2,37.81 C86.15,39.4 85.21,40.7 84.37,41.73 C83.53,42.76 82.65,43.68 81.71,44.51 C80.82,45.27 79.93,45.85 79.05,46.25 C78.16,46.65 77.32,46.85 76.52,46.85 C75.27,46.85 74.31,46.5 73.65,45.81 C73,45.12 72.66,44.11 72.66,42.79 C72.66,40.39 73.59,37.38 75.44,33.8 C77.29,30.21 79.65,26.86 82.51,23.73 C84.43,21.61 86.29,19.96 88.09,18.79 C89.89,17.62 91.44,17.03 92.76,17.03 C93.76,17.03 94.67,17.46 95.47,18.34 L96.24,17.47 L100.71,17.48 Z M94.01,19.59 C94.01,18.54 93.6,18.02 92.77,18.02 C91.27,18.02 89.08,20.04 86.21,24.08 C83.4,28.05 81.13,32.15 79.42,36.37 C78.25,39.11 77.67,41.33 77.67,43 C77.67,44.09 78.1,44.64 78.98,44.64 C80,44.64 81.35,43.71 83.03,41.85 C84.7,40 86.41,37.52 88.15,34.42 C89.24,32.45 90.31,30.3 91.35,27.96 C92.39,25.62 93.12,23.71 93.54,22.24 C93.85,21.17 94.01,20.29 94.01,19.59 Z" id="Shape"></path>
            <path d="M127.81,65.71 C126.49,65.68 125.15,65.46 123.78,64.95 C122.41,64.45 121.06,63.72 119.75,62.75 C118.43,61.79 117.23,60.69 116.15,59.44 C115.06,58.19 114.03,56.7 113.05,54.95 C112.31,53.57 111.65,52.06 111.07,50.42 C110.49,48.78 109.97,46.9 109.51,44.77 C109.05,42.65 108.52,39.73 107.92,36 L107.79,35.23 L105.95,35.63 L101.6,46.62 L96.34,46.62 L113.02,4.62 C113.22,4.18 113.32,3.8 113.32,3.52 C113.32,3.18 113.25,2.94 113.1,2.78 C112.96,2.62 112.67,2.52 112.25,2.44 C111.83,2.37 111.15,2.32 110.21,2.27 L110.58,1.34 L119.42,1.34 L110.88,23.31 C112.6,21.3 114.24,19.79 115.8,18.75 C117.36,17.72 118.8,17.21 120.09,17.21 C121.32,17.21 122.27,17.57 122.96,18.3 C123.63,19.03 123.98,20 123.98,21.23 C123.98,24.14 122.43,26.91 119.33,29.57 C117.68,30.98 115.44,32.37 112.6,33.76 C112.78,36.15 113.22,39.23 113.94,43 C114.79,47.49 115.91,51.35 117.29,54.58 C118.68,57.82 120.24,60.27 122,61.93 C123.75,63.59 125.63,64.39 127.64,64.39 C129.27,64.39 130.04,63.98 130.36,63.56 C130.68,63.14 130.79,62.68 130.66,62.19 C130.57,61.85 130.38,61.59 130.15,61.41 L129.47,60.92 C129.22,60.74 129.06,60.54 128.99,60.29 C128.86,59.82 128.96,59.35 129.3,58.87 C129.64,58.39 130.1,58.08 130.68,57.92 C131.45,57.71 132.22,57.85 132.97,58.35 C133.72,58.84 134.21,59.51 134.44,60.36 C134.76,61.53 134.58,62.63 133.84,63.63 C132.67,65.18 130.49,65.77 127.81,65.71 Z M106.45,34.33 C109.35,33.57 111.76,32.56 113.68,31.28 C115.51,30.1 116.97,28.78 118.07,27.35 C119.16,25.91 119.71,24.59 119.71,23.38 C119.71,22.67 119.47,22.07 118.99,21.59 C118.51,21.11 117.9,20.87 117.16,20.87 C116.11,20.87 114.93,21.35 113.63,22.31 C112.32,23.27 111.18,24.51 110.2,26.03 C109.24,27.51 108.35,29.36 107.53,31.59 L106.45,34.33 Z" id="Shape"></path>
            <path d="M144.45,13.85 C146.43,13.45 148.04,12.64 149.07,11.41 C150.11,10.16 150.32,9.35 150.26,8.82 C150.19,8.31 149.93,7.93 149.48,7.7 C149.16,7.54 148.82,7.48 148.53,7.52 L147.71,7.7 C147.42,7.77 147.16,7.74 146.93,7.63 C146.5,7.41 146.22,7.01 146.09,6.44 C145.97,5.87 146.05,5.32 146.32,4.78 C146.69,4.07 147.3,3.6 148.18,3.38 C149.05,3.15 149.88,3.25 150.66,3.65 C151.74,4.2 152.43,5.08 152.66,6.3 C153.03,8.19 152.01,10.3 150.13,12.14 C149.2,13.07 147.38,14.34 144.45,14.9 L144.45,13.85 Z" id="Shape"></path>
            <path d="M137.43,37.81 C135.78,40.6 133.97,42.79 132.02,44.4 C130.06,46.01 128.19,46.82 126.41,46.82 C124.71,46.82 123.38,46.24 122.41,45.07 C121.44,43.92 120.95,42.35 120.95,40.39 C120.95,37.87 121.7,34.98 123.2,31.75 C124.69,28.51 126.69,25.48 129.19,22.64 C130.96,20.68 132.51,19.26 133.86,18.39 C135.21,17.52 136.5,17.08 137.73,17.08 C138.98,17.08 139.98,17.42 140.71,18.1 C141.45,18.78 141.82,19.71 141.82,20.9 C141.82,22.51 141.15,24.02 139.84,25.45 C137.92,27.55 134.65,29.94 130.03,32.61 C128.93,33.26 128.12,33.75 127.58,34.09 C127.16,35.18 126.78,36.52 126.44,38.09 C126.11,39.66 125.94,40.86 125.94,41.69 C125.94,42.6 126.16,43.34 126.61,43.9 C127.05,44.46 127.64,44.73 128.35,44.73 C130.51,44.73 133.15,42.48 136.25,37.97 L136.66,37.4 L137.43,37.81 Z M128.06,32.69 C128.93,32.25 129.9,31.61 130.97,30.8 C132.04,29.99 133.04,29.13 133.95,28.24 C137.32,24.94 139.01,22.24 139.01,20.17 C139.01,19.54 138.87,19.05 138.57,18.68 C138.28,18.31 137.88,18.13 137.37,18.13 C135.85,18.13 134.15,19.76 132.28,23.02 C130.56,26 129.15,29.23 128.06,32.69 Z" id="Shape"></path>
            <path d="M160.36,20.26 C160.36,20.77 160.19,21.21 159.86,21.57 C159.52,21.92 159.11,22.1 158.62,22.1 C158.28,22.1 157.91,21.97 157.51,21.7 C157.11,21.43 156.53,20.92 155.77,20.16 C155.28,19.62 154.85,19.25 154.48,19.04 C154.11,18.83 153.69,18.72 153.22,18.72 C152.53,18.72 151.91,18.92 151.38,19.31 C150.84,19.7 150.41,20.22 150.08,20.87 C149.74,21.52 149.57,22.25 149.57,23.08 C149.57,24.08 149.81,25.21 150.3,26.46 C150.53,27.02 151.24,28.35 152.44,30.44 C153.98,33.12 154.75,35.54 154.75,37.71 C154.75,39.52 154.38,41.11 153.63,42.5 C152.89,43.88 151.81,44.96 150.43,45.73 C149.05,46.5 147.46,46.89 145.67,46.89 C143.66,46.89 141.87,46.44 140.28,45.52 C138.69,44.61 137.9,43.59 137.9,42.47 C137.9,41.8 138.12,41.27 138.54,40.87 C138.96,40.46 139.5,40.27 140.14,40.27 C140.7,40.27 141.15,40.44 141.49,40.79 C141.84,41.14 142.17,41.73 142.48,42.58 C142.94,43.76 143.47,44.6 144.06,45.09 C144.64,45.59 145.41,45.83 146.37,45.83 C147.67,45.83 148.79,45.33 149.75,44.31 C150.71,43.29 151.19,42.13 151.19,40.81 C151.19,39.61 150.77,38.25 149.92,36.73 L148.31,33.95 C146.95,31.58 146.27,29.32 146.27,27.15 C146.27,25.46 146.68,23.83 147.49,22.28 C148.3,20.73 149.39,19.49 150.76,18.56 C152.12,17.63 153.59,17.17 155.15,17.17 C156.53,17.17 157.75,17.49 158.79,18.13 C159.84,18.74 160.36,19.46 160.36,20.26" id="Shape"></path>
        </g>
    </g>
</svg>